<?xml version="1.0" encoding="UTF-8"?>
<!DOCTYPE svg PUBLIC "-//W3C//DTD SVG 1.1//EN"
    "http://www.w3.org/Graphics/SVG/1.1/DTD/svg11.dtd">
<svg xmlns="http://www.w3.org/2000/svg" xmlns:xlink="http://www.w3.org/1999/xlink" version="1.1" width="400.0" height="400.0" font-size="1" viewBox="0 0 400 400"><g><g transform="matrix(3.499092540543186,0.0,0.0,3.499092540543186,199.99999999999997,199.99999999999997)"><g stroke="rgb(0,0,0)" stroke-opacity="1.0" fill="rgb(64,46,40)" fill-opacity="1.0" stroke-width="2.0e-2" font-size="1.0em"><path d="M 34.64101615137753,20.00000000000003 l -17.32050807568877,-10.000000000000007 l -17.320508075688775,9.999999999999995 l -8.330074156748355e-15,19.999999999999996 l 17.32050807568877,10.000000000000005 l 17.320508075688778,-9.999999999999982 Z" /></g></g><g transform="matrix(3.499092540543186,0.0,0.0,3.499092540543186,199.99999999999997,199.99999999999997)"><g stroke="rgb(0,0,0)" stroke-opacity="1.0" fill="rgb(0,0,0)" fill-opacity="0.0" stroke-width="1.0e-2" font-size="1.0em"></g></g><g transform="matrix(3.499092540543186,0.0,0.0,3.499092540543186,199.99999999999997,199.99999999999997)"><g stroke="rgb(0,0,0)" stroke-opacity="1.0" fill="rgb(255,255,255)" fill-opacity="1.0" stroke-width="1.0e-2" font-size="5.0em"><text transform="matrix(1.0,0.0,0.0,1.0,17.320508075688757,35.00000000000002)" dominant-baseline="middle" text-anchor="middle" stroke="none">#402e28</text></g></g><g transform="matrix(3.499092540543186,0.0,0.0,3.499092540543186,199.99999999999997,199.99999999999997)"><g stroke="rgb(0,0,0)" stroke-opacity="1.0" fill="rgb(0,0,0)" fill-opacity="0.0" stroke-width="1.0e-2" font-size="1.0em"></g></g><g transform="matrix(3.499092540543186,0.0,0.0,3.499092540543186,199.99999999999997,199.99999999999997)"><g stroke="rgb(0,0,0)" stroke-opacity="1.0" fill="rgb(255,255,255)" fill-opacity="1.0" stroke-width="1.0e-2" font-size="5.0em"><text transform="matrix(1.0,0.0,0.0,1.0,17.320508075688757,30.00000000000002)" dominant-baseline="middle" text-anchor="middle" stroke="none">(1,0)</text></g></g><g transform="matrix(3.499092540543186,0.0,0.0,3.499092540543186,199.99999999999997,199.99999999999997)"><g stroke="rgb(0,0,0)" stroke-opacity="1.0" fill="rgb(152,155,142)" fill-opacity="1.0" stroke-width="2.0e-2" font-size="1.0em"><path d="M -1.0658141036401503e-14,19.999999999999993 l -17.32050807568877,-10.000000000000007 l -17.320508075688775,9.999999999999995 l -8.330074156748355e-15,19.999999999999996 l 17.32050807568877,10.000000000000005 l 17.320508075688778,-9.999999999999982 Z" /></g></g><g transform="matrix(3.499092540543186,0.0,0.0,3.499092540543186,199.99999999999997,199.99999999999997)"><g stroke="rgb(0,0,0)" stroke-opacity="1.0" fill="rgb(0,0,0)" fill-opacity="0.0" stroke-width="1.0e-2" font-size="1.0em"></g></g><g transform="matrix(3.499092540543186,0.0,0.0,3.499092540543186,199.99999999999997,199.99999999999997)"><g stroke="rgb(0,0,0)" stroke-opacity="1.0" fill="rgb(255,255,255)" fill-opacity="1.0" stroke-width="1.0e-2" font-size="5.0em"><text transform="matrix(1.0,0.0,0.0,1.0,-17.320508075688785,34.999999999999986)" dominant-baseline="middle" text-anchor="middle" stroke="none">#989b8f</text></g></g><g transform="matrix(3.499092540543186,0.0,0.0,3.499092540543186,199.99999999999997,199.99999999999997)"><g stroke="rgb(0,0,0)" stroke-opacity="1.0" fill="rgb(0,0,0)" fill-opacity="0.0" stroke-width="1.0e-2" font-size="1.0em"></g></g><g transform="matrix(3.499092540543186,0.0,0.0,3.499092540543186,199.99999999999997,199.99999999999997)"><g stroke="rgb(0,0,0)" stroke-opacity="1.0" fill="rgb(255,255,255)" fill-opacity="1.0" stroke-width="1.0e-2" font-size="5.0em"><text transform="matrix(1.0,0.0,0.0,1.0,-17.320508075688785,29.999999999999986)" dominant-baseline="middle" text-anchor="middle" stroke="none">(1,-1)</text></g></g><g transform="matrix(3.499092540543186,0.0,0.0,3.499092540543186,199.99999999999997,199.99999999999997)"><g stroke="rgb(0,0,0)" stroke-opacity="1.0" fill="rgb(210,70,191)" fill-opacity="1.0" stroke-width="2.0e-2" font-size="1.0em"><path d="M -17.320508075688767,-10.000000000000007 l -17.32050807568877,-10.000000000000007 l -17.320508075688775,9.999999999999995 l -8.330074156748355e-15,19.999999999999996 l 17.32050807568877,10.000000000000005 l 17.320508075688778,-9.999999999999982 Z" /></g></g><g transform="matrix(3.499092540543186,0.0,0.0,3.499092540543186,199.99999999999997,199.99999999999997)"><g stroke="rgb(0,0,0)" stroke-opacity="1.0" fill="rgb(0,0,0)" fill-opacity="0.0" stroke-width="1.0e-2" font-size="1.0em"></g></g><g transform="matrix(3.499092540543186,0.0,0.0,3.499092540543186,199.99999999999997,199.99999999999997)"><g stroke="rgb(0,0,0)" stroke-opacity="1.0" fill="rgb(255,255,255)" fill-opacity="1.0" stroke-width="1.0e-2" font-size="5.0em"><text transform="matrix(1.0,0.0,0.0,1.0,-34.64101615137754,4.999999999999987)" dominant-baseline="middle" text-anchor="middle" stroke="none">#d346c0</text></g></g><g transform="matrix(3.499092540543186,0.0,0.0,3.499092540543186,199.99999999999997,199.99999999999997)"><g stroke="rgb(0,0,0)" stroke-opacity="1.0" fill="rgb(0,0,0)" fill-opacity="0.0" stroke-width="1.0e-2" font-size="1.0em"></g></g><g transform="matrix(3.499092540543186,0.0,0.0,3.499092540543186,199.99999999999997,199.99999999999997)"><g stroke="rgb(0,0,0)" stroke-opacity="1.0" fill="rgb(255,255,255)" fill-opacity="1.0" stroke-width="1.0e-2" font-size="5.0em"><text transform="matrix(1.0,0.0,0.0,1.0,-34.64101615137754,-1.3460738804684947e-14)" dominant-baseline="middle" text-anchor="middle" stroke="none">(0,1)</text></g></g><g transform="matrix(3.499092540543186,0.0,0.0,3.499092540543186,199.99999999999997,199.99999999999997)"><g stroke="rgb(0,0,0)" stroke-opacity="1.0" fill="rgb(185,174,33)" fill-opacity="1.0" stroke-width="2.0e-2" font-size="1.0em"><path d="M 1.0658141036401503e-14,-39.99999999999999 l -17.32050807568877,-10.000000000000007 l -17.320508075688775,9.999999999999995 l -8.330074156748355e-15,19.999999999999996 l 17.32050807568877,10.000000000000005 l 17.320508075688778,-9.999999999999982 Z" /></g></g><g transform="matrix(3.499092540543186,0.0,0.0,3.499092540543186,199.99999999999997,199.99999999999997)"><g stroke="rgb(0,0,0)" stroke-opacity="1.0" fill="rgb(0,0,0)" fill-opacity="0.0" stroke-width="1.0e-2" font-size="1.0em"></g></g><g transform="matrix(3.499092540543186,0.0,0.0,3.499092540543186,199.99999999999997,199.99999999999997)"><g stroke="rgb(0,0,0)" stroke-opacity="1.0" fill="rgb(255,255,255)" fill-opacity="1.0" stroke-width="1.0e-2" font-size="5.0em"><text transform="matrix(1.0,0.0,0.0,1.0,-17.320508075688764,-25.0)" dominant-baseline="middle" text-anchor="middle" stroke="none">#baaf21</text></g></g><g transform="matrix(3.499092540543186,0.0,0.0,3.499092540543186,199.99999999999997,199.99999999999997)"><g stroke="rgb(0,0,0)" stroke-opacity="1.0" fill="rgb(0,0,0)" fill-opacity="0.0" stroke-width="1.0e-2" font-size="1.0em"></g></g><g transform="matrix(3.499092540543186,0.0,0.0,3.499092540543186,199.99999999999997,199.99999999999997)"><g stroke="rgb(0,0,0)" stroke-opacity="1.0" fill="rgb(255,255,255)" fill-opacity="1.0" stroke-width="1.0e-2" font-size="5.0em"><text transform="matrix(1.0,0.0,0.0,1.0,-17.320508075688764,-30.0)" dominant-baseline="middle" text-anchor="middle" stroke="none">(0,0)</text></g></g><g transform="matrix(3.499092540543186,0.0,0.0,3.499092540543186,199.99999999999997,199.99999999999997)"><g stroke="rgb(0,0,0)" stroke-opacity="1.0" fill="rgb(153,52,39)" fill-opacity="1.0" stroke-width="2.0e-2" font-size="1.0em"><path d="M 34.641016151377556,-39.99999999999999 l -17.32050807568877,-10.000000000000007 l -17.320508075688775,9.999999999999995 l -8.330074156748355e-15,19.999999999999996 l 17.32050807568877,10.000000000000005 l 17.320508075688778,-9.999999999999982 Z" /></g></g><g transform="matrix(3.499092540543186,0.0,0.0,3.499092540543186,199.99999999999997,199.99999999999997)"><g stroke="rgb(0,0,0)" stroke-opacity="1.0" fill="rgb(0,0,0)" fill-opacity="0.0" stroke-width="1.0e-2" font-size="1.0em"></g></g><g transform="matrix(3.499092540543186,0.0,0.0,3.499092540543186,199.99999999999997,199.99999999999997)"><g stroke="rgb(0,0,0)" stroke-opacity="1.0" fill="rgb(255,255,255)" fill-opacity="1.0" stroke-width="1.0e-2" font-size="5.0em"><text transform="matrix(1.0,0.0,0.0,1.0,17.320508075688778,-25.0)" dominant-baseline="middle" text-anchor="middle" stroke="none">#9a3427</text></g></g><g transform="matrix(3.499092540543186,0.0,0.0,3.499092540543186,199.99999999999997,199.99999999999997)"><g stroke="rgb(0,0,0)" stroke-opacity="1.0" fill="rgb(0,0,0)" fill-opacity="0.0" stroke-width="1.0e-2" font-size="1.0em"></g></g><g transform="matrix(3.499092540543186,0.0,0.0,3.499092540543186,199.99999999999997,199.99999999999997)"><g stroke="rgb(0,0,0)" stroke-opacity="1.0" fill="rgb(255,255,255)" fill-opacity="1.0" stroke-width="1.0e-2" font-size="5.0em"><text transform="matrix(1.0,0.0,0.0,1.0,17.320508075688778,-30.0)" dominant-baseline="middle" text-anchor="middle" stroke="none">(0,-1)</text></g></g><g transform="matrix(3.499092540543186,0.0,0.0,3.499092540543186,199.99999999999997,199.99999999999997)"><g stroke="rgb(0,0,0)" stroke-opacity="1.0" fill="rgb(193,210,215)" fill-opacity="1.0" stroke-width="2.0e-2" font-size="1.0em"><path d="M 51.961524227066334,-9.999999999999993 l -17.32050807568877,-10.000000000000007 l -17.320508075688775,9.999999999999995 l -8.330074156748355e-15,19.999999999999996 l 17.32050807568877,10.000000000000005 l 17.320508075688778,-9.999999999999982 Z" /></g></g><g transform="matrix(3.499092540543186,0.0,0.0,3.499092540543186,199.99999999999997,199.99999999999997)"><g stroke="rgb(0,0,0)" stroke-opacity="1.0" fill="rgb(0,0,0)" fill-opacity="0.0" stroke-width="1.0e-2" font-size="1.0em"></g></g><g transform="matrix(3.499092540543186,0.0,0.0,3.499092540543186,199.99999999999997,199.99999999999997)"><g stroke="rgb(0,0,0)" stroke-opacity="1.0" fill="rgb(255,255,255)" fill-opacity="1.0" stroke-width="1.0e-2" font-size="5.0em"><text transform="matrix(1.0,0.0,0.0,1.0,34.641016151377556,5.0)" dominant-baseline="middle" text-anchor="middle" stroke="none">#c1d3d8</text></g></g><g transform="matrix(3.499092540543186,0.0,0.0,3.499092540543186,199.99999999999997,199.99999999999997)"><g stroke="rgb(0,0,0)" stroke-opacity="1.0" fill="rgb(0,0,0)" fill-opacity="0.0" stroke-width="1.0e-2" font-size="1.0em"></g></g><g transform="matrix(3.499092540543186,0.0,0.0,3.499092540543186,199.99999999999997,199.99999999999997)"><g stroke="rgb(0,0,0)" stroke-opacity="1.0" fill="rgb(255,255,255)" fill-opacity="1.0" stroke-width="1.0e-2" font-size="5.0em"><text transform="matrix(1.0,0.0,0.0,1.0,34.641016151377556,0.0)" dominant-baseline="middle" text-anchor="middle" stroke="none">(-1,1)</text></g></g><g transform="matrix(3.499092540543186,0.0,0.0,3.499092540543186,199.99999999999997,199.99999999999997)"><g stroke="rgb(0,0,0)" stroke-opacity="1.0" fill="rgb(73,103,164)" fill-opacity="1.0" stroke-width="2.0e-2" font-size="1.0em"><path d="M 17.320508075688775,-9.999999999999993 l -17.32050807568877,-10.000000000000007 l -17.320508075688775,9.999999999999995 l -8.330074156748355e-15,19.999999999999996 l 17.32050807568877,10.000000000000005 l 17.320508075688778,-9.999999999999982 Z" /></g></g><g transform="matrix(3.499092540543186,0.0,0.0,3.499092540543186,199.99999999999997,199.99999999999997)"><g stroke="rgb(0,0,0)" stroke-opacity="1.0" fill="rgb(0,0,0)" fill-opacity="0.0" stroke-width="1.0e-2" font-size="1.0em"></g></g><g transform="matrix(3.499092540543186,0.0,0.0,3.499092540543186,199.99999999999997,199.99999999999997)"><g stroke="rgb(0,0,0)" stroke-opacity="1.0" fill="rgb(255,255,255)" fill-opacity="1.0" stroke-width="1.0e-2" font-size="5.0em"><text transform="matrix(1.0,0.0,0.0,1.0,0.0,5.0)" dominant-baseline="middle" text-anchor="middle" stroke="none">#4967a5</text></g></g><g transform="matrix(3.499092540543186,0.0,0.0,3.499092540543186,199.99999999999997,199.99999999999997)"><g stroke="rgb(0,0,0)" stroke-opacity="1.0" fill="rgb(0,0,0)" fill-opacity="0.0" stroke-width="1.0e-2" font-size="1.0em"></g></g><g transform="matrix(3.499092540543186,0.0,0.0,3.499092540543186,199.99999999999997,199.99999999999997)"><g stroke="rgb(0,0,0)" stroke-opacity="1.0" fill="rgb(255,255,255)" fill-opacity="1.0" stroke-width="1.0e-2" font-size="5.0em"><text transform="matrix(1.0,0.0,0.0,1.0,0.0,0.0)" dominant-baseline="middle" text-anchor="middle" stroke="none">(-1,0)</text></g></g></g></svg>